# xmcd
#
# Track frame offsets:
#	150
#	13145
#	30888
#	48426
#	65081
#	80563
#	95501
#	120884
#	136715
#	151447
#	169681
#	187643
#	222817
#	240849
#	254642
#	272621
#	288876
#	305694
#	323700
#	342455
#
# Disc length: 4793 seconds
#
# Revision: 0
# Processed by: cddbd v1.5.2PL0 Copyright (c) Steve Scherf et al.
# Submitted via: EasyCDDAExtractor 2010.6.0.0
#
DISCID=0a12b714
DTITLE=Various Artist - 100 Hits - Dance Classics - cd 2
DYEAR=2011
DGENRE=Dance
TTITLE0=Axwell feat. Max'c - I Found U
TTITLE1=Inner City - Good Life
TTITLE2=Heaven 17 - Temptation (Brothers In Rhythm Remix Edit)
TTITLE3=Coco - I Need A Miracle
TTITLE4=Bassheads - Is There Anybody Out There?
TTITLE5=K-Klass - Don't Stop
TTITLE6=Kym Mazelle - Was That All It Was
TTITLE7=Todd Terry Project - Weekend
TTITLE8=Judy Cheeks - Respect
TTITLE9=Adeva - Respect
TTITLE10=Mantronix feat. Wondress - Got To Have Your Love
TTITLE11=Extortion - How Do You See Me Now
TTITLE12=Judy Cheeks - So In Love (The Real Deal) (Frankie Foncett Radio Edit)
TTITLE13=Kim Appleby - G.L.A.D.
TTITLE14=Monie Love - Never Give Up
TTITLE15=Exoterix - Void
TTITLE16=Hyper Go Go - Never let Go
TTITLE17=Inner City - Ain't Nobody Better
TTITLE18=The Disco Evangelists - De Niro
TTITLE19=Definition Of Sound - Wear Your Love Like Heaven
EXTD=
EXTT0=
EXTT1=
EXTT2=
EXTT3=
EXTT4=
EXTT5=
EXTT6=
EXTT7=
EXTT8=
EXTT9=
EXTT10=
EXTT11=
EXTT12=
EXTT13=
EXTT14=
EXTT15=
EXTT16=
EXTT17=
EXTT18=
EXTT19=
PLAYORDER=
